{
	"asset":{
		"generator":"Khronos glTF Blender I/O v4.5.48",
		"version":"2.0"
	},
	"scene":0,
	"scenes":[
		{
			"name":"Scene",
			"nodes":[
				0
			]
		}
	],
	"nodes":[
		{
			"mesh":0,
			"name":"Arch_01",
			"translation":[
				18,
				0,
				18
			]
		}
	],
	"materials":[
		{
			"doubleSided":true,
			"name":"Stone_Arch",
			"normalTexture":{
				"index":0
			},
			"pbrMetallicRoughness":{
				"baseColorTexture":{
					"index":1
				},
				"metallicRoughnessTexture":{
					"index":2
				}
			}
		}
	],
	"meshes":[
		{
			"name":"Cube_dmg.009",
			"primitives":[
				{
					"attributes":{
						"POSITION":0,
						"NORMAL":1,
						"TEXCOORD_0":2
					},
					"indices":3,
					"material":0
				}
			]
		}
	],
	"textures":[
		{
			"sampler":0,
			"source":0
		},
		{
			"sampler":0,
			"source":1
		},
		{
			"sampler":0,
			"source":2
		}
	],
	"images":[
		{
			"mimeType":"image/png",
			"name":"CastleRuins_Arches_Normal_OpenGL",
			"uri":"CastleRuins_Arches_Normal_OpenGL.png"
		},
		{
			"mimeType":"image/png",
			"name":"CastleRuins_Arches_AO",
			"uri":"CastleRuins_Arches_AO.png"
		},
		{
			"mimeType":"image/png",
			"name":"CastleRuins_Arches_Metallic.png-CastleRuins_Arches_Roughness.png",
			"uri":"CastleRuins_Arches_Metallic.png-CastleRuins_Arches_Roughness.png.png"
		}
	],
	"accessors":[
		{
			"bufferView":0,
			"componentType":5126,
			"count":1045,
			"max":[
				5.003580570220947,
				4.934654235839844,
				0.41935932636260986
			],
			"min":[
				-0.0033301126677542925,
				-0.006554936990141869,
				-0.4174686074256897
			],
			"type":"VEC3"
		},
		{
			"bufferView":1,
			"componentType":5126,
			"count":1045,
			"type":"VEC3"
		},
		{
			"bufferView":2,
			"componentType":5126,
			"count":1045,
			"type":"VEC2"
		},
		{
			"bufferView":3,
			"componentType":5123,
			"count":3138,
			"type":"SCALAR"
		}
	],
	"bufferViews":[
		{
			"buffer":0,
			"byteLength":12540,
			"byteOffset":0,
			"target":34962
		},
		{
			"buffer":0,
			"byteLength":12540,
			"byteOffset":12540,
			"target":34962
		},
		{
			"buffer":0,
			"byteLength":8360,
			"byteOffset":25080,
			"target":34962
		},
		{
			"buffer":0,
			"byteLength":6276,
			"byteOffset":33440,
			"target":34963
		}
	],
	"samplers":[
		{
			"magFilter":9729,
			"minFilter":9987
		}
	],
	"buffers":[
		{
			"byteLength":39716,
			"uri":"ruins.bin"
		}
	]
}
