{
	"asset":{
		"generator":"Khronos glTF Blender I/O v4.5.49",
		"version":"2.0"
	},
	"scene":0,
	"scenes":[
		{
			"name":"Scene",
			"nodes":[
				0
			]
		}
	],
	"nodes":[
		{
			"mesh":0,
			"name":"Arch_07",
			"translation":[
				-30,
				0,
				18
			]
		}
	],
	"materials":[
		{
			"doubleSided":true,
			"name":"Stone_Arch.001",
			"normalTexture":{
				"index":0
			},
			"pbrMetallicRoughness":{
				"baseColorTexture":{
					"index":1
				},
				"metallicRoughnessTexture":{
					"index":2
				}
			}
		}
	],
	"meshes":[
		{
			"name":"Cube_dmg.001",
			"primitives":[
				{
					"attributes":{
						"POSITION":0,
						"NORMAL":1,
						"TEXCOORD_0":2
					},
					"indices":3,
					"material":0
				}
			]
		}
	],
	"textures":[
		{
			"sampler":0,
			"source":0
		},
		{
			"sampler":0,
			"source":1
		},
		{
			"sampler":0,
			"source":2
		}
	],
	"images":[
		{
			"mimeType":"image/png",
			"name":"CastleRuins_Arches_Normal_OpenGL",
			"uri":"CastleRuins_Arches_Normal_OpenGL.png"
		},
		{
			"mimeType":"image/png",
			"name":"CastleRuins_Arches_AO",
			"uri":"CastleRuins_Arches_AO.png"
		},
		{
			"mimeType":"image/png",
			"name":"CastleRuins_Arches_Metallic.png-CastleRuins_Arches_Roughness.png",
			"uri":"CastleRuins_Arches_Metallic.png-CastleRuins_Arches_Roughness.png.png"
		}
	],
	"accessors":[
		{
			"bufferView":0,
			"componentType":5126,
			"count":1094,
			"max":[
				5.0046539306640625,
				4.49077844619751,
				0.41939646005630493
			],
			"min":[
				-0.0021611058618873358,
				-0.008089826442301273,
				-0.41728317737579346
			],
			"type":"VEC3"
		},
		{
			"bufferView":1,
			"componentType":5126,
			"count":1094,
			"type":"VEC3"
		},
		{
			"bufferView":2,
			"componentType":5126,
			"count":1094,
			"type":"VEC2"
		},
		{
			"bufferView":3,
			"componentType":5123,
			"count":3210,
			"type":"SCALAR"
		}
	],
	"bufferViews":[
		{
			"buffer":0,
			"byteLength":13128,
			"byteOffset":0,
			"target":34962
		},
		{
			"buffer":0,
			"byteLength":13128,
			"byteOffset":13128,
			"target":34962
		},
		{
			"buffer":0,
			"byteLength":8752,
			"byteOffset":26256,
			"target":34962
		},
		{
			"buffer":0,
			"byteLength":6420,
			"byteOffset":35008,
			"target":34963
		}
	],
	"samplers":[
		{
			"magFilter":9729,
			"minFilter":9987
		}
	],
	"buffers":[
		{
			"byteLength":41428,
			"uri":"ruins.bin"
		}
	]
}
