{
	"asset":{
		"generator":"Khronos glTF Blender I/O v4.0.44",
		"version":"2.0"
	},
	"scene":0,
	"scenes":[
		{
			"name":"Scene",
			"nodes":[
				0
			]
		}
	],
	"nodes":[
		{
			"mesh":0,
			"name":"Cube"
		}
	],
	"materials":[
		{
			"doubleSided":true,
			"name":"Material",
			"pbrMetallicRoughness":{
				"baseColorFactor":[
					0.800000011920929,
					0.800000011920929,
					0.800000011920929,
					1
				],
				"metallicFactor":0,
				"roughnessFactor":0.5
			}
		}
	],
	"meshes":[
		{
			"name":"Cube",
			"primitives":[
				{
					"attributes":{
						"POSITION":0,
						"NORMAL":1,
						"TEXCOORD_0":2
					},
					"indices":3,
					"material":0
				}
			]
		}
	],
	"accessors":[
		{
			"bufferView":0,
			"componentType":5126,
			"count":99846,
			"max":[
				3.716207265853882,
				3.716207265853882,
				3.716207265853882
			],
			"min":[
				-3.716207265853882,
				-3.716207265853882,
				-3.716207265853882
			],
			"type":"VEC3"
		},
		{
			"bufferView":1,
			"componentType":5126,
			"count":99846,
			"type":"VEC3"
		},
		{
			"bufferView":2,
			"componentType":5126,
			"count":99846,
			"type":"VEC2"
		},
		{
			"bufferView":3,
			"componentType":5125,
			"count":589824,
			"type":"SCALAR"
		}
	],
	"bufferViews":[
		{
			"buffer":0,
			"byteLength":1198152,
			"byteOffset":0,
			"target":34962
		},
		{
			"buffer":0,
			"byteLength":1198152,
			"byteOffset":1198152,
			"target":34962
		},
		{
			"buffer":0,
			"byteLength":798768,
			"byteOffset":2396304,
			"target":34962
		},
		{
			"buffer":0,
			"byteLength":2359296,
			"byteOffset":3195072,
			"target":34963
		}
	],
	"buffers":[
		{
			"byteLength":5554368,
			"uri":"verybigtest.bin"
		}
	]
}
